<svg width="24" height="24" version="1.1" viewBox="0 0 6.35 6.35" xmlns="http://www.w3.org/2000/svg"><g transform="translate(.24398 .61316)"><path d="m4.0535 2.1169c-0.48966-6e-3 -0.94046-0.030234-1.2785 0.49669-0.33805 0.52693-0.9101 0.80335-0.84078 1.2698 0.069343 0.46646 0.38138 1.5117 0.86678 1.6758 0.4854 0.16413 1.7423-0.24187 1.9849-0.33689 0.030338-0.011878 0.12772 0.11108 0.32949 0.076983 0.20178-0.034097 0.44296-0.10864 0.56154-0.12679 0.23715-0.036307 0.39031-0.29937 0.33656-0.31192-0.21507-0.050209-0.56097 0.10932-0.72146 0.056823-0.16049-0.052503-0.10957-0.12269-0.1074-0.23067 0.0086678-0.43191 0.42473-1.2353 0.2167-1.5549-0.20803-0.31961-0.28604-0.58307-0.4594-0.71264-0.17336-0.12957-0.77431-0.30093-0.88844-0.30234z" fill="currentColor" stroke-width=".81902"/><g transform="matrix(1.3392 0 0 1.3108 -.37693 -.35014)" fill="none" stroke="currentColor" stroke-width=".29955"><path d="m2.2768 2.5616c-0.72899-0.52825-2.0338-0.41732-2.0338-0.41732"/><path d="m2.2187 2.514c-1.0037-1.141-1.8806-1.3101-1.8806-1.3101"/><path d="m2.5145 2.6672c-1.1305-1.1727-2.0074-2.636-2.0074-2.636"/><path d="m2.356 2.5774c-0.36978-0.68673-0.243-2.2609-0.243-2.2609"/></g></g></svg>
